<svg xmlns="http://www.w3.org/2000/svg" viewBox="0 0 270.71 272.47"><defs><style>.cls-1{fill:#aa0004;}.cls-10,.cls-2{fill:#fff;}.cls-3{fill:#3a008b;}.cls-4{fill:#54249b;}.cls-5{fill:#5b2ea0;}.cls-6{fill:#3b028c;}.cls-7{fill:#3f078f;}.cls-8{fill:#4c1997;}.cls-9{fill:#c7c5e2;}.cls-10{font-size:28px;font-family:Gotham-Ultra, Gotham;}.cls-11{letter-spacing:-0.01em;}.cls-12{letter-spacing:-0.01em;}</style></defs><g id="Capa_2" data-name="Capa 2"><ellipse class="cls-1" cx="135.36" cy="136.24" rx="135.36" ry="136.24"/><circle class="cls-2" cx="226.22" cy="251.74" r="116.49" transform="translate(-200.14 126.55) rotate(-45)"/></g><g id="Capa_1" data-name="Capa 1"><path class="cls-3" d="M356,242.47c3.15,53.75-35.64,114-100.12,130.1C184.08,390.52,110.49,345.37,94,273.3c-16-69.92,26.12-141.59,98.18-159.24s144.44,26.88,161.33,99.52A106.49,106.49,0,0,1,356,242.47ZM198.29,182.91h.58c.1,2,.2,4,.31,6.09h53s1.08-1.89,1.62-2.76c1.76,4.24,4.93,6.84,9.51,6.71,4.33-.12,7.47-2.55,9.05-6.95H274V188c5.22-.89,10.88-6.15,10.29-10.14-.49-.27-1.29-.85-1.29-.85v-3.9L281.14,172c.44-1.74.75-2.95,1.11-4.36-2.48-.23-4.65-.31-6.79-.63-11.92-1.81-23.8-3.95-35.77-5.45-13.28-1.65-26.42-1.25-39,4.35A68.39,68.39,0,0,1,185,171a40.63,40.63,0,0,0-15.95,6.73,63.53,63.53,0,0,0-5.35,4.67l1.45,1.67-2.26,4.64,16.07.72V182l.35,0h.34c0,.87,0,1.74.06,2.61a9.27,9.27,0,0,0,8.32,8.62,9.46,9.46,0,0,0,9.86-6.89A23.18,23.18,0,0,0,198.29,182.91ZM206,302H162V291h31V270H162V258h44V236H139v88h67Zm103-32c-1.94-16.95-21.07-38.57-48.45-37.59-26.65,1-47.18,24.14-46.42,48.19.78,24.47,21.09,45.13,46.72,46.06,26,.95,46.81-19.35,48.74-40.66H286.53c-6.06,15.51-17.29,19.39-28.94,17.66-8.87-1.33-18.52-9.41-19.83-21.85a24.61,24.61,0,0,1,15.51-25.12,25.43,25.43,0,0,1,15.77-.85c7.77,1.91,12.75,7.27,16.31,14.16ZM142.54,226" transform="translate(-88.39 -107.14)"/><path class="cls-4" d="M272.41,186c1-7.15-2.73-12.33-9-12.43a9.45,9.45,0,0,0-9.72,10.29c0,.71.11,1.43.16,2.14l-1.62,2.6c0-1.87-.11-3.74-.09-5.62,0-4.63,2.15-8.1,6.32-10a11,11,0,0,1,12.17,1.71c3.49,2.94,4.4,6.92,2.71,11.31Z" transform="translate(-88.39 -107.14)"/><path class="cls-5" d="M198.2,182.75c-1.47-5.44-4.92-8.26-10.65-8.06l-1-.78c6.65-1.8,11.43,1.65,12.23,8.84h-.58Z" transform="translate(-88.39 -107.14)"/><path class="cls-5" d="M186.55,173.91l1,.78c-4.05.83-6.45,3.48-7.91,7.17h-.35l-.35,0C179.73,177,181.54,175.08,186.55,173.91Z" transform="translate(-88.39 -107.14)"/><path class="cls-6" d="M231,169.48c-8.35.67-16.7,1.47-25.06,2a94.43,94.43,0,0,1-10.21-.49l-.22-1.17c2.09-.91,4.14-1.92,6.27-2.7,8.48-3.11,17.17-5.07,26.27-4.6,1.39.07,3-.26,3.3,1.85C231.12,166,233.44,167.92,231,169.48Z" transform="translate(-88.39 -107.14)"/><path class="cls-7" d="M232.29,163.26c4.32-1.06,7.62.81,11.31,4-3.69.58-6.55,2.62-9.83.68C233.28,166.36,232.78,164.81,232.29,163.26Z" transform="translate(-88.39 -107.14)"/><path class="cls-8" d="M237.83,181.51l6.46,3.05v.86L238.85,187l-1.87-4.7Z" transform="translate(-88.39 -107.14)"/><path class="cls-9" d="M232.29,163.26c.49,1.55,1,3.1,1.48,4.65L231,169.48c2.42-1.56.1-3.44.35-5.15Z" transform="translate(-88.39 -107.14)"/><text class="cls-10" transform="translate(40.35 114.97) scale(1.05 1)"><tspan class="cls-11">A</tspan><tspan x="21.98" y="0">u</tspan><tspan class="cls-11" x="40.04" y="0">t</tspan><tspan x="52.11" y="0">o</tspan><tspan class="cls-12" x="70.25" y="0">R</tspan><tspan x="89.99" y="0">eporta</tspan></text></g></svg>